<svg width="512" height="512" viewBox="0 0 512 512" fill="none" xmlns="http://www.w3.org/2000/svg">
<rect width="512" height="512" fill="#000000"/>
<!-- Core A shape -->
<path d="M256 64L128 448H208L236 360H290L316 448H400L256 64ZM248 280L264 220L280 280H248Z" fill="#FFFFFF"/>
<!-- Stylized jagged/spiky artifacts to match the uploaded image -->
<path d="M200 200L130 250L180 260Z" fill="#FFFFFF"/>
<path d="M310 220L380 290L320 300Z" fill="#FFFFFF"/>
<path d="M190 350L120 420L160 410Z" fill="#FFFFFF"/>
<path d="M330 360L390 440L350 440Z" fill="#FFFFFF"/>
<path d="M256 64L290 20L330 100Z" fill="#FFFFFF"/>
<path d="M220 120L170 80L200 150Z" fill="#FFFFFF"/>
</svg>
